# xmcd CD database file
#
# Track frame offsets:
#	150
#	13266
#	19055
#	36001
#	53857
#	76312
#	87375
#	102058
#	113302
#	125677
#	135695
#	156556
#	169598
#
# Disc length: 2552 seconds
#
# Revision: 1
# Processed by: cddbd v1.4PL0 Copyright (c) Steve Scherf et al.
# Submitted via: CDex 1.50
#
DISCID=9f09f60d
DTITLE=HHLB - Overschrijding
DYEAR=1900
DGENRE=Nederhop
TTITLE0=Introductie
TTITLE1=Het zelfde liedje
TTITLE2=Wat schept de wetenschapper
TTITLE3=Leeggezogen ziel
TTITLE4=Les 666
TTITLE5=Ego=me
TTITLE6=Kleine meid
TTITLE7=Hou het echt
TTITLE8=Vloeitje
TTITLE9=Compton
TTITLE10=Doelloze pijn van het verleden
TTITLE11=Rap vs Gejengel
TTITLE12=Carpe diem
EXTD=
EXTT0=
EXTT1=
EXTT2=
EXTT3=
EXTT4=
EXTT5=
EXTT6=
EXTT7=
EXTT8=
EXTT9=
EXTT10=
EXTT11=
EXTT12=
PLAYORDER=
